#
#
#

mtllib bird.mtl


#
#  Mesh
#
g  Mesh


#
#  Mesh_Bird_matterial_Bird_cm
#
usemtl  Mesh_Bird_matterial_Bird_cm

v 1.490475 -1.188460 -0.244885
v 1.612204 -1.265930 0.529925
v 1.548453 -1.056234 0.715323
v 1.390883 -0.955953 -0.287621
v 0.929498 -0.216057 -0.486934
v 0.655409 0.088066 -0.342527
v 1.192877 -0.031005 0.756731
v 0.858879 0.231025 0.618250
v -1.558074 -1.155277 -0.177116
v -1.786333 -1.115040 0.576163
v -1.724496 -0.888762 0.741643
v -1.429029 -0.940847 -0.233430
v -0.867834 -0.280307 -0.454324
v -0.583091 0.014303 -0.310814
v -1.267461 0.095707 0.707239
v -0.891817 0.304788 0.586536
v -0.711019 -0.329144 -0.151580
v -0.381323 -0.624270 -0.741579
v -0.560905 -1.139863 0.105745
v -0.959721 -0.949836 0.662827
v -0.765276 -0.453884 0.979817
v -0.959721 0.468739 0.789790
v -0.560905 0.785728 0.293838
v -0.381323 0.412445 -0.614616
v 0.495949 -0.298606 -0.332100
v 0.370624 0.077443 -0.795134
v 0.370624 0.412445 -0.614616
v 0.708813 -0.329144 -0.151580
v -0.005350 0.623084 0.986456
v -0.005350 -0.486800 1.252826
v 0.763070 -0.453884 0.979817
v 0.957515 0.468739 0.789790
v 0.550206 0.785728 0.293838
v -0.005350 1.058737 0.326755
v 0.957515 -0.949836 0.662827
v 0.550206 -1.139863 0.105745
v 0.370624 -0.624270 -0.741579
v -0.005350 0.537795 -0.768961
v -0.005350 0.202792 -0.949479
v -0.005350 -0.722646 -0.938245
v -0.005350 -1.412871 0.072829
v -0.005350 -0.692108 -1.118764
v 0.370624 -0.593733 -0.922098
v -0.381323 0.077443 -0.795135
v -0.506648 -0.298606 -0.332100
v -0.005350 -1.146502 0.817172
v -0.283849 -0.238664 -1.112125
v -0.381323 -0.593733 -0.922098
v 0.273149 -0.238664 -1.112124
v -0.005351 -0.217684 -1.385132
vn 0.652271 0.646496 0.395709
vn 0.651146 0.451613 -0.609962
vn -0.906902 -0.352531 -0.230762
vn -0.812627 -0.181836 0.553690
vn -0.621110 -0.429048 0.655851
vn 0.829436 0.278157 0.484422
vn -0.727887 -0.674922 -0.121082
vn 0.876986 0.125381 -0.463870
vn 0.829436 0.278157 0.484422
vn -0.727887 -0.674922 -0.121082
vn -0.812627 -0.181836 0.553690
vn -0.906902 -0.352531 -0.230762
vn 0.623322 -0.751273 -0.216930
vn 0.513920 -0.421955 0.746887
vn -0.885133 0.462106 0.054760
vn -0.709778 0.178260 -0.681497
vn -0.480866 0.390698 -0.784935
vn 0.849576 -0.416205 -0.324028
vn -0.659370 0.748824 -0.067046
vn 0.790946 -0.140689 0.595492
vn 0.623322 -0.751273 -0.216930
vn 0.849576 -0.416205 -0.324028
vn -0.659369 0.748824 -0.067046
vn -0.709778 0.178260 -0.681497
vn -0.885132 0.462106 0.054760
vn -0.929920 0.037629 -0.365831
vn -0.728399 -0.510721 -0.456727
vn -0.606320 -0.747228 -0.272078
vn -0.803619 -0.562612 0.194073
vn -0.661356 -0.129609 0.738790
vn -0.835433 0.441748 0.326971
vn -0.929920 0.037629 -0.365831
vn -0.630993 0.764374 -0.132593
vn -0.723288 0.406588 -0.558159
vn 0.907713 0.089038 -0.410037
vn 0.765339 0.270822 -0.583876
vn 0.719965 0.406897 -0.562215
vn 0.926805 0.039872 -0.373421
vn -0.001165 0.595894 0.803062
vn -0.835433 0.441748 0.326971
vn -0.001376 -0.170628 0.985335
vn 0.659931 -0.129876 0.740016
vn 0.833839 0.445493 0.325958
vn 0.627799 0.766694 -0.134347
vn -0.000468 0.999711 0.024032
vn -0.001165 0.595894 0.803062
vn 0.801127 -0.566746 0.192338
vn 0.926805 0.039872 -0.373421
vn 0.602389 -0.749728 -0.273927
vn 0.725449 -0.509597 -0.462639
vn -0.000001 0.723951 -0.689852
vn -0.000000 0.575210 -0.818006
vn 0.926805 0.039872 -0.373421
vn 0.833839 0.445493 0.325958
vn -0.000000 -0.926534 -0.376211
vn -0.000461 -0.984979 -0.172674
vn -0.000000 -0.816247 -0.577704
vn 0.819225 -0.293475 -0.492688
vn 0.725449 -0.509597 -0.462639
vn -0.000000 -0.926534 -0.376211
vn -0.767181 0.272425 -0.580705
vn -0.911881 0.084829 -0.401593
vn 0.926805 0.039872 -0.373421
vn 0.725449 -0.509597 -0.462639
vn -0.630993 0.764374 -0.132593
vn -0.000001 0.723951 -0.689852
vn 0.719965 0.406897 -0.562215
vn -0.723288 0.406588 -0.558159
vn -0.001141 -0.801733 0.597681
vn 0.801127 -0.566746 0.192338
vn 0.801127 -0.566746 0.192338
vn -0.001376 -0.170628 0.985335
vn -0.001141 -0.801733 0.597681
vn -0.661356 -0.129609 0.738790
vn -0.001141 -0.801733 0.597681
vn -0.606320 -0.747228 -0.272078
vn -0.000461 -0.984979 -0.172674
vn -0.767181 0.272425 -0.580705
vn -0.779694 0.104441 -0.617389
vn -0.820310 -0.298077 -0.488101
vn 0.779694 0.104442 -0.617390
vn -0.000000 0.163004 -0.986625
vn -0.000000 -0.816247 -0.577704
vn 0.819225 -0.293475 -0.492689
vn -0.000000 0.163004 -0.986625
vn 0.765339 0.270822 -0.583876
vn 0.779694 0.104442 -0.617390
vn -0.000000 0.163004 -0.986625
vn -0.728399 -0.510721 -0.456727
vn -0.929920 0.037629 -0.365831
vn -0.820310 -0.298077 -0.488101
vn -0.000000 -0.816247 -0.577704
vt 0.925760 0.752038
vt 0.926303 0.929066
vt 0.883792 0.958592
vt 0.883089 0.729440
vt 0.668988 0.727426
vt 0.856297 0.727610
vt 0.932309 0.743587
vt 0.623137 0.748944
vt 0.709866 0.729972
vt 0.710569 0.959123
vt 0.640088 0.929944
vt 0.639545 0.752916
vt 0.625745 0.933601
vt 0.934916 0.928245
vt 0.859673 0.966638
vt 0.672364 0.966454
vt 0.947999 0.729252
vt 0.948598 0.924386
vt 0.901738 0.956932
vt 0.900963 0.704343
vt 0.684384 0.709373
vt 0.873641 0.709559
vt 0.950444 0.725702
vt 0.638055 0.731115
vt 0.710023 0.704928
vt 0.710798 0.957518
vt 0.633108 0.925354
vt 0.632510 0.730219
vt 0.640690 0.917694
vt 0.953079 0.912281
vt 0.877052 0.951074
vt 0.687795 0.950888
vt 0.214991 0.198767
vt 0.272624 0.132102
vt 0.295863 0.244229
vt 0.251384 0.315534
vt 0.182609 0.317258
vt 0.086343 0.276985
vt 0.071189 0.193445
vt 0.150608 0.107277
vt 0.062105 0.435005
vt 0.128899 0.405631
vt 0.152036 0.433573
vt 0.048614 0.464961
vt 0.411731 0.098788
vt 0.526167 0.112661
vt 0.502578 0.225550
vt 0.411394 0.235534
vt 0.319320 0.225107
vt 0.296279 0.112105
vt 0.345301 0.063430
vt 0.411978 0.032237
vt 0.478530 0.063752
vt 0.632094 0.437599
vt 0.647123 0.564862
vt 0.543283 0.516072
vt 0.515108 0.484857
vt 0.534727 0.402147
vt 0.643372 0.353012
vt 0.295945 0.430945
vt 0.246151 0.441928
vt 0.232608 0.399901
vt 0.282402 0.388917
vt 0.158796 0.432887
vt 0.224330 0.555901
vt 0.152036 0.583632
vt 0.647691 0.303039
vt 0.511073 0.340188
vt 0.443860 0.506290
vt 0.398198 0.393991
vt 0.470118 0.377718
vt 0.485879 0.475566
vt 0.448540 0.527310
vt 0.406185 0.509478
vt 0.401505 0.488458
vt 0.195758 0.101638
vt 0.219066 0.167908
vt 0.526167 0.136436
vt 0.526197 0.047580
vt 0.526645 0.032237
vt 0.545533 0.109114
vt 0.143022 0.065429
vt 0.039385 0.154013
vt 0.295931 0.570010
vt 0.188172 0.059790
vt 0.393595 0.303213
vt 0.345443 0.396768
vt 0.295945 0.335909
vt 0.411316 0.303039
vt 0.295945 0.276044
vt 0.525832 0.276600
vt 0.511073 0.303039
vt 0.244429 0.076192
vt 0.276587 0.113326
vt 0.067974 0.367413
vt 0.115782 0.360109
vt 0.295945 0.075374
vt 0.253416 0.032237
vt 0.068605 0.317258
vt 0.133774 0.317321
vt 0.233730 0.345259
vt 0.270810 0.317258
vt 0.490560 0.496586
f 1/1/1 2/2/2 3/3/3 4/4/4
f 4/5/4 5/6/5 6/7/6 1/8/1
f 5/9/5 7/10/7 8/11/8 6/12/6
f 2/13/2 8/14/8 7/15/7 3/16/3
f 2/13/2 1/8/1 6/7/9 8/14/8
f 7/10/10 5/9/5 4/4/11 3/3/12
f 9/17/13 10/18/14 11/19/15 12/20/16
f 12/21/16 13/22/17 14/23/18 9/24/13
f 13/25/17 15/26/19 16/27/20 14/28/18
f 10/29/14 16/30/20 15/31/19 11/32/15
f 10/29/14 9/24/21 14/23/22 16/30/20
f 15/26/23 13/25/17 12/20/24 11/19/25
f 17/33/26 18/34/27 19/35/28 20/36/29
f 17/33/26 20/36/29 21/37/30 22/38/31
f 17/33/32 22/38/31 23/39/33 24/40/34
f 25/41/35 26/42/36 27/43/37 28/44/38
f 29/45/39 22/46/40 21/47/30 30/48/41
f 29/45/39 30/48/41 31/49/42 32/50/43
f 29/45/39 32/50/43 33/51/44 34/52/45
f 29/45/46 34/52/45 23/53/33 22/46/31
f 28/54/38 32/55/43 31/56/42 35/57/47
f 28/54/48 35/57/47 36/58/49 37/59/50
f 38/60/51 27/61/37 26/62/36 39/63/52
f 28/64/53 27/61/37 33/65/44 32/66/54
f 40/67/55 37/59/50 36/58/49 41/68/56
f 40/69/55 41/70/56 19/71/28 18/72/27
f 42/73/57 43/74/58 37/75/59 40/69/60
f 17/33/32 24/40/34 44/76/61 45/77/62
f 28/78/63 37/79/64 43/80/58 25/81/35
f 38/82/51 24/40/34 23/39/65 34/83/45
f 38/60/66 34/84/45 33/65/44 27/61/67
f 39/85/52 44/76/61 24/40/68 38/82/51
f 46/86/69 41/70/56 36/87/49 35/88/70
f 46/89/69 35/90/71 31/49/42 30/48/72
f 46/89/73 30/48/72 21/47/74 20/91/29
f 46/86/75 20/92/29 19/71/76 41/70/77
f 45/77/62 44/76/78 47/93/79 48/94/80
f 25/41/35 43/95/58 49/96/81 26/42/36
f 42/97/57 48/94/80 47/93/79 50/98/82
f 42/99/83 50/100/82 49/96/81 43/95/84
f 39/85/52 50/98/85 47/93/79 44/76/78
f 39/63/52 26/62/86 49/101/87 50/102/88
f 18/34/89 17/33/90 45/77/62 48/94/91
f 40/69/55 18/72/89 48/103/80 42/73/92
